<svg width="1369" height="212" viewBox="0 0 1369 212" fill="none" xmlns="http://www.w3.org/2000/svg">
<path fill-rule="evenodd" clip-rule="evenodd" d="M68.7717 93.39C35.4147 144.755 8.29373 186.951 8.50173 187.159C8.70973 187.367 35.7627 174.594 68.6197 158.774C101.476 142.953 128.911 130.01 129.585 130.01C130.26 130.01 157.678 142.94 190.514 158.744C223.35 174.548 250.391 187.304 250.605 187.09C250.947 186.749 135.816 8.687 131.203 2.422L129.42 0L68.7717 93.39ZM1230.59 93.593C1213.58 134.43 1197.73 172.465 1195.37 178.115L1191.08 188.387L1209.66 188.115L1228.25 187.843L1236.28 167.093L1244.31 146.343H1278.58H1312.85L1321.09 167.343L1329.33 188.343H1348.67C1359.31 188.343 1368.02 188.017 1368.02 187.617C1368.02 187.218 1352.61 149.196 1333.77 103.124L1299.52 19.356L1280.51 19.349L1261.51 19.343L1230.59 93.593ZM365.019 104.265V188.343H399.795C435.842 188.343 445.994 187.641 459.474 184.217C490.395 176.362 511.46 156.476 519.191 127.843C522.316 116.268 522.305 92.342 519.169 80.843C511.831 53.936 493.93 35.283 467.019 26.503C451.115 21.315 448.869 21.099 405.769 20.63L365.019 20.186V104.265ZM612.019 104.343V188.343H672.519H733.019V173.843V159.343H691.519H650.019V137.343V115.343H685.519H721.019V100.843V86.343H685.519H650.019V67.843V49.343H690.019H730.019V34.843V20.343H671.019H612.019V104.343ZM837.019 104.343V188.343H892.019H947.019V173.843V159.343H911.019H875.019V89.843V20.343H856.019H837.019V104.343ZM999.019 34.843V49.343H1027.52H1056.02V118.843V188.343H1075.02H1094.02V118.843V49.343H1122.02H1150.02V34.843V20.343H1074.52H999.019V34.843ZM446.347 51.734C465.399 57.045 477.597 69.181 482.141 87.343C484.17 95.455 483.891 115.346 481.642 122.843C477.387 137.025 469.334 146.975 457.742 152.369C446.947 157.394 440.972 158.492 421.269 159.072L403.019 159.609V104.356V49.102L421.769 49.606C434.643 49.951 442.345 50.618 446.347 51.734ZM1290.72 89.108C1296.9 104.857 1301.81 117.886 1301.63 118.062C1301.46 118.237 1290.95 118.26 1278.28 118.112L1255.24 117.843L1257.99 110.843C1274.32 69.237 1278.37 59.36 1278.88 59.873C1279.21 60.203 1284.54 73.358 1290.72 89.108ZM65.0187 182.311C30.0937 197.089 0.843727 209.64 0.0187268 210.203C-1.00727 210.902 40.0987 211.234 130.019 211.254C205.265 211.27 260.877 210.909 260.019 210.41C257.394 208.885 130.234 155.341 129.358 155.393C128.897 155.42 99.9437 167.533 65.0187 182.311Z" fill="white"/>
</svg>
